<svg
    xmlns="http://www.w3.org/2000/svg"
    version="1.1"
    width="20"
    height="20"
    x="0"
    y="0"
    viewBox="0 0 31.938 32"
>
    <g>
        <path
            d="M22 12H4c-2.206 0-4-1.794-4-4V4c0-2.206 1.794-4 4-4h18c2.206 0 4 1.794 4 4v4c0 2.206-1.794 4-4 4zM4 2c-1.103 0-2 .897-2 2v4c0 1.103.897 2 2 2h18c1.103 0 2-.897 2-2V4c0-1.103-.897-2-2-2z"
            fill="#fff"
            opacity="1"
        ></path>
        <path
            d="M15.947 22H4c-2.206 0-4-1.794-4-4v-4c0-2.206 1.794-4 4-4h18c2.206 0 4 1.794 4 4v1.817h-2V14c0-1.103-.897-2-2-2H4c-1.103 0-2 .897-2 2v4c0 1.103.897 2 2 2h11.947z"
            fill="#fff"
            opacity="1"
        ></path>
        <path
            d="M15.944 32H4c-2.206 0-4-1.794-4-4v-4c0-2.206 1.794-4 4-4h11.947v2H4c-1.103 0-2 .897-2 2v4c0 1.103.897 2 2 2h11.944zM5.005 7.002c-.07 0-.14-.01-.2-.02s-.13-.03-.19-.06a.556.556 0 0 1-.17-.09.983.983 0 0 1-.15-.12c-.19-.19-.29-.45-.29-.71 0-.27.1-.52.29-.71.04-.05.09-.09.15-.12a.95.95 0 0 1 .17-.1c.06-.02.13-.04.19-.05a.99.99 0 0 1 1.19.98c0 .26-.1.52-.29.71-.181.18-.44.29-.7.29zM5.005 17.002c-.27 0-.53-.1-.71-.29a.99.99 0 0 1-.29-.71c0-.26.1-.52.29-.7.37-.37 1.04-.37 1.41 0 .19.18.29.44.29.7a.99.99 0 0 1-.99 1z"
            fill="#fff"
            opacity="1"
        ></path>
        <path
            d="M4.995 27.012c-.26 0-.52-.11-.7-.29-.19-.19-.29-.45-.29-.71s.1-.52.29-.71c.37-.37 1.04-.37 1.41 0 .19.19.3.45.3.71s-.11.52-.3.71c-.181.18-.44.29-.71.29zM24.941 31.848a6.954 6.954 0 0 1-4.95-2.05c-2.729-2.729-2.729-7.17 0-9.899s7.17-2.729 9.899 0 2.729 7.17 0 9.899a6.95 6.95 0 0 1-4.949 2.05zm0-11.997a4.984 4.984 0 0 0-3.536 1.462 5.006 5.006 0 0 0 0 7.071 4.968 4.968 0 0 0 3.536 1.464c1.335 0 2.591-.52 3.536-1.464a5.006 5.006 0 0 0 0-7.071 4.984 4.984 0 0 0-3.536-1.462z"
            fill="#fff"
            opacity="1"
        ></path>
        <path d="m20.209 28.12 7.999-7.998 1.414 1.414-7.999 7.999z" fill="#fff" opacity="1"></path>
    </g>
</svg>