<svg xmlns="http://www.w3.org/2000/svg" width="24" height="24" viewBox="0 0 24 24">
    <g>
        <path
            d="M19 4.25H5C3.48 4.25 2.25 5.48 2.25 7v10c0 1.52 1.23 2.75 2.75 2.75h14c1.52 0 2.75-1.23 2.75-2.75V7c0-1.52-1.23-2.75-2.75-2.75zM20.25 17c0 .69-.56 1.25-1.25 1.25H5c-.69 0-1.25-.56-1.25-1.25V7c0-.69.56-1.25 1.25-1.25h14c.69 0 1.25.56 1.25 1.25z"
            fill="#fff"
            opacity="1"
        ></path>
        <path
            d="M12 14.25H6c-.41 0-.75.34-.75.75s.34.75.75.75h6c.41 0 .75-.34.75-.75s-.34-.75-.75-.75zM18 14.25h-3c-.41 0-.75.34-.75.75s.34.75.75.75h3c.41 0 .75-.34.75-.75s-.34-.75-.75-.75zM6 12.75h2c.41 0 .75-.34.75-.75s-.34-.75-.75-.75H6c-.41 0-.75.34-.75.75s.34.75.75.75zM18 11.25h-7c-.41 0-.75.34-.75.75s.34.75.75.75h7c.41 0 .75-.34.75-.75s-.34-.75-.75-.75z"
            fill="#fff"
            opacity="1"
        ></path>
    </g>
</svg>